<svg xmlns="http://www.w3.org/2000/svg" width="41" height="48" viewBox="0 0 41 48">
  <g id="Polygon_3" data-name="Polygon 3" transform="translate(41) rotate(90)" fill="#fff">
    <path d="M 37.53543090820312 40.50000381469727 L 10.46457004547119 40.50000381469727 C 8.469340324401855 40.50000381469727 6.685649871826172 39.46662521362305 5.693210124969482 37.73572540283203 C 4.700779914855957 36.00481414794922 4.710040092468262 33.94342422485352 5.717989921569824 32.22151565551758 L 19.25341987609863 9.098484992980957 C 20.25094985961914 7.394364356994629 22.0253791809082 6.376974582672119 24 6.376974582672119 C 25.9746208190918 6.376974582672119 27.7490406036377 7.394364356994629 28.74658012390137 9.098484992980957 L 42.28200912475586 32.22151565551758 C 43.28995895385742 33.94342422485352 43.29922103881836 36.00481414794922 42.30678939819336 37.73572540283203 C 41.31435012817383 39.46662521362305 39.53065872192383 40.50000381469727 37.53543090820312 40.50000381469727 Z" stroke="none"/>
    <path d="M 24 6.876964569091797 C 22.20487976074219 6.876964569091797 20.59177017211914 7.801864624023438 19.6849193572998 9.35107421875 L 6.149490356445312 32.47410583496094 C 5.233180999755859 34.03947448730469 5.224758148193359 35.9134635925293 6.126968383789062 37.48701477050781 C 7.029190063476562 39.06056594848633 8.650718688964844 39.99999618530273 10.46456909179688 39.99999618530273 L 37.53543090820312 39.99999618530273 C 39.34928131103516 39.99999618530273 40.97080993652344 39.06056594848633 41.87303161621094 37.48701477050781 C 42.77523803710938 35.9134635925293 42.76681900024414 34.03947448730469 41.85050964355469 32.47410583496094 L 28.3150806427002 9.35107421875 C 27.4082202911377 7.801864624023438 25.79511070251465 6.876964569091797 24 6.876964569091797 M 23.99999618530273 5.876968383789062 C 26.00973701477051 5.876968383789062 28.01947975158691 6.866607666015625 29.1780891418457 8.845893859863281 L 42.71352005004883 31.96892547607422 C 45.0549201965332 35.96881484985352 42.17021942138672 40.99999618530273 37.53543090820312 40.99999618530273 L 10.46456909179688 40.99999618530273 C 5.829780578613281 40.99999618530273 2.945079803466797 35.96881484985352 5.286479949951172 31.96892547607422 L 18.8219108581543 8.845893859863281 C 19.98051452636719 6.866607666015625 21.99025535583496 5.876968383789062 23.99999618530273 5.876968383789062 Z" stroke="none" fill="#707070"/>
  </g>
</svg>
