<svg xmlns="http://www.w3.org/2000/svg" width="24" height="24" viewBox="0 0 24 24">
  <g id="Group_274" data-name="Group 274" transform="translate(-252 -158)">
    <rect id="Rectangle_255" data-name="Rectangle 255" width="24" height="24" transform="translate(252 158)" fill="none"/>
    <path id="Icon_material-call" data-name="Icon material-call" d="M8.683,13.5A17.5,17.5,0,0,0,16.3,21.117l2.542-2.542a1.149,1.149,0,0,1,1.179-.277,13.181,13.181,0,0,0,4.125.659A1.159,1.159,0,0,1,25.3,20.111v4.033A1.159,1.159,0,0,1,24.144,25.3,19.643,19.643,0,0,1,4.5,5.656,1.159,1.159,0,0,1,5.656,4.5H9.7a1.159,1.159,0,0,1,1.156,1.156,13.127,13.127,0,0,0,.659,4.125,1.16,1.16,0,0,1-.289,1.179L8.683,13.5Z" transform="translate(249.1 155.1)" fill="#59d6d6"/>
  </g>
</svg>
