<svg xmlns="http://www.w3.org/2000/svg" width="24" height="24" viewBox="0 0 24 24">
  <g id="Group_275" data-name="Group 275" transform="translate(-7801 -2690)">
    <rect id="Rectangle_258" data-name="Rectangle 258" width="24" height="24" transform="translate(7801 2690)" fill="none"/>
    <path id="Icon_awesome-video" data-name="Icon awesome-video" d="M12.549,4.5H1.784A1.784,1.784,0,0,0,0,6.284V17.049a1.784,1.784,0,0,0,1.784,1.784H12.549a1.784,1.784,0,0,0,1.784-1.784V6.284A1.784,1.784,0,0,0,12.549,4.5Zm7.07,1.407L15.528,8.729V14.6l4.091,2.818A1.2,1.2,0,0,0,21.5,16.46V6.87A1.2,1.2,0,0,0,19.619,5.907Z" transform="translate(7802.25 2690.333)" fill="#59d6d6"/>
  </g>
</svg>
