<svg xmlns="http://www.w3.org/2000/svg" width="21" height="19" viewBox="0 0 21 19">
  <g id="Layer_2" data-name="Layer 2" transform="translate(0.091 -0.212)">
    <g id="eye" transform="translate(0 0)">
      <rect id="Rectangle_40" data-name="Rectangle 40" width="21" height="19" transform="translate(-0.091 0.212)" fill="#59D6D6" opacity="0"/>
      <circle id="Ellipse_14" data-name="Ellipse 14" cx="1.249" cy="1.249" r="1.249" transform="translate(8.545 8.755)" fill="#59D6D6"/>
      <path id="Path_57" data-name="Path 57" d="M18.541,10.41C18.008,9.486,15.078,4.849,10.1,5c-4.6.117-7.268,4.162-7.992,5.411a.832.832,0,0,0,0,.832c.524.907,3.33,5.411,8.233,5.411h.208c4.6-.117,7.276-4.162,7.992-5.411A.832.832,0,0,0,18.541,10.41Zm-8.217,3.33a2.914,2.914,0,1,1,2.914-2.914,2.914,2.914,0,0,1-2.914,2.914Z" transform="translate(-0.531 -0.823)" fill="#59D6D6"/>
    </g>
  </g>
</svg>
