<svg xmlns="http://www.w3.org/2000/svg" xmlns:xlink="http://www.w3.org/1999/xlink" width="512" height="512" viewBox="0 0 512 512">
  <defs>
    <clipPath id="clip-splash-logo">
      <rect width="512" height="512"/>
    </clipPath>
  </defs>
  <g id="splash-logo" clip-path="url(#clip-splash-logo)">
    <g id="Camada_x0020_1" transform="translate(-711.1 -797.773)">
      <g id="_1852876643136" transform="translate(711.1 817.773)">
        <path id="Path_1495" data-name="Path 1495" d="M914.932,1111.057l-4.908-6.126c-.945-1.276-1.776-2.477-2.691-3.789-1.732-2.48-3.409-4.934-5.037-7.558-7.809-12.593-1.956-30.878-1.206-45.873.007-17.408-.5-33.556-3.214-50.993-3.1-19.869-7.229-38.511-20.6-52.934l-4.917-4.543c-.593-.477-1.04-.862-1.695-1.326a86.48,86.48,0,0,0-11.444-7.156l-4.269-2.093c-14.679-7.379-23.18-3.652-29.7-10.529-3.525-3.717-6.585-9.642-9.122-14.173-2.319-4.578-5.325-9.589-6.5-14.634-.327-1.405-.592-3-.89-4.546a124.564,124.564,0,0,0-6.857-22.5c-.313-.755-.531-1.08-.872-1.816l-1.822-3.544c-.653-1.26-1.307-2.26-1.947-3.411-.654-1.174-1.383-2.21-2.011-3.34A227.208,227.208,0,0,0,781.261,829.8l-4.742-5.714c-.462-.492-.809-.907-1.279-1.376-.526-.524-.836-.682-1.374-1.276a20.192,20.192,0,0,0-4.4-3.537c-1.622-.573-2.2,1.012-2.7,2.291-1.005,2.594-1.791,5.354-2.613,8-.434,1.405-.866,2.786-1.279,4.129l-1.486,3.9c-4.058-.1-5.517-6.409-8.363-9.487a4.6,4.6,0,0,0-4.072-1.912c0,2.017.021,4.006-.152,5.733l-.95,8.02c-.151,1.9-.462,6.5-1.028,7.937-.59,1.493-1.74,1.936-2.954,2.72a51.877,51.877,0,0,0-6.8,4.873,19.066,19.066,0,0,0-5.045,6.568c-2.033,5.433-.2,11.9-1.455,13.372-.317.373-5.678,4.282-7.53,7.04-1.876,2.793-.587,5.934.867,9.188-.916.229-9.846,2.162-10.789,2.162.907,1.329,3.089.443,4.432.244,1.864-.277,3.818.149,5.441.149l-2.926,1.767c-1.02.543-1.875,1.113-2.986,1.7-.647.344-5.6,3.058-5.974,3.6,3.025.757,7.042-3.734,13.167-3.734-.5,2.319-3.38,3.579-4.389,4.521,1.325-.118,3.026-1.23,4.389-1.573,2.287,1.647,2.788,5.209,7.838,6.907a23.34,23.34,0,0,0,4.124.677c3.231.514,4.017-.127,8.224,1.383,1.314.47,2.243.836,3.481,1.368l3.361,1.46c2.365,1.2.132,46.119,1.026,53.182.246,1.938.438,3.451.706,5.335,1.795,12.644,5.974,26.163,10.607,37.734,6.367,15.9,5.616,9.674,5.616,30.916,0,4.242.183,7.852.183,11.99v12.383c0,2.236-.187,3.8-.183,5.9.01,4.809.052,7.507-.183,12.185-.05,1,.074,2.129-.026,3.116-.074.731-.28,2.027-.339,2.78-1.224.111-2.539,1.015-4.577,1.173-8.975.706-8.641,13.075-4.521,16.666,2.156,1.878,17.631,1.4,22.265,1.424,13.252-.7,12.329-14.057,14.81-27.909.777-5.1,2.727-14,3.241-18.53.161-1.414.116-2.8.31-4.188.2-1.443.3-6.324.575-8.425,1.39-10.624,4.532-14.16,11.372-20.994A48.516,48.516,0,0,1,822.619,1018c3.364-1.658,7.067-3.24,10.887-1.825a5.755,5.755,0,0,1,2.486,1.85c-.782,1.149-9.1,5-11.763,6.422-.928.5-1.487.888-2.378,1.375-5.9,3.215-11.943,8.746-14.089,15.716a24.95,24.95,0,0,0-1.213,6.557c-.01,1.415-.187,2.051-.182,3.541.033,8.738,2.323,16.429,7.208,23.112l9.118,9.658a20.638,20.638,0,0,1,3.423,4.181c-6.262.559-24.912-3.824-25.814,5.469-.351,3.629.031,7.258.031,11.041,20.811,5.209,64.078-3.946,87.723.052,1.707.29,1.524.424,2.321,1.831a168.776,168.776,0,0,0,13.087,19.933c.287.462.486.584.837,1.068l6.633,7.216a13.181,13.181,0,0,1,.987.905,62.534,62.534,0,0,0,10.07,7.454c.95.505,1.59,1,2.5,1.438,6.5,3.085,16.358,6.9,23.59,7.27,5.836.3,8.445.447,14.26-.585a51.286,51.286,0,0,0,6.178-1.615c8.74-2.617,15.707-9.036,20.418-10.966l-.493-.349c-3.563-2.326-14.2-9.479-16.411-9.883-1.45.072-8.054,2.263-10.019,2.807C944.035,1136.644,926.234,1125.585,914.932,1111.057Z" transform="translate(-711.1 -817.774)" fill="#59d6d6" fill-rule="evenodd"/>
        <path id="Path_1496" data-name="Path 1496" d="M2098.151,1304.252c1.1-1.552,5.02-4.459,7.576-7.974.452-.623.858-1.094,1.327-1.717,2.98-3.958,5.056-7.068,6.2-12.6a39.4,39.4,0,0,0,.37-11.831c-1.369-10.038-7.159-15.619-14.845-19.028-2.351-1.044-8.731-4.149-9.77-5.813a4.867,4.867,0,0,1,4.205-2.163c4.462,0,10.443,4.289,13.795,6.99,5.145,4.145,10.285,10.313,11.392,17.239.434,2.729,1.266,10.6,1.329,13.314.117,5.01,1.845,14.83,2.854,19.142,1.128,4.819,3.152,20.389,8.483,20.365,5.151-.024,15.587.219,20.314-.179,1.716-.144,1.529.017,2.5-1.046a8.564,8.564,0,0,0,2.226-8.2c-.426-2.16-.949-3.711-2.6-4.671-1.977-1.145-5.473-1.326-6.658-1.884-1.1-.52-.937-3.461-.963-4.662l-.237-7.018c-.389-3.053.05-17.824.05-21.872,0-4.839-.5-20.718.841-24.843.3-.915.816-1.888.986-2.673,1.347-1.665,6.6-17.05,7.063-18.55,8.293-26.732,5.372-43.767,5.372-70.094,11.374-6.469,13.774-3.1,19.2-5.7,1.711-.819,3.666-2.471,3.838-4.717,2.709,0,3.023,1.348,5.486,1.966-.5-2.314-1.535-2.277-3.193-3.448a1.543,1.543,0,0,1-.829-1.467l5.641,2c1.29.513,4.1,1.937,5.7,1.937-2.118-3.4-6.481-4.08-9.8-5.584a7.977,7.977,0,0,0-1.538-.7c.444-.654,1.145-.592,2-.6,2.856-.025,4.778.4,7.688.4-1.492-2.394-8.715-1.85-9.51-3.144a7.1,7.1,0,0,1,.913-1.575c1.791-3.335-.593-6.147-2.866-8.118l-2.757-2.343c-2.3-2.262-1.35-5.332-1.735-8.551a15.749,15.749,0,0,0-.926-4.115l-1.873-3.293a24.035,24.035,0,0,0-8.246-6.663c-1.31-.7-2.32-.862-2.441-2.687-.271-4.089-1.139-15.2-2.559-18.083-4.638,1.163-4.469,8.566-9.508,9.828-2.807-4.5-2.921-11.115-5.669-15.527-1.621,0-2.411.654-3.519,1.722a164.353,164.353,0,0,0-17.874,22.455c-.362.552-.7,1.029-1.064,1.607-4.341,6.89-8.662,14.1-10.26,22.386-1.841,9.551-2.364,12.109-6.476,20.949-3.1,6.659-7.264,15.255-13.529,18.872-2.339,1.352-5.12,1.842-8.124,2.471-5.724,1.2-10.734,2.442-15.956,5.256-4.145,2.236-9.119,5.206-12.479,8.8l-2.653,2.654a70.809,70.809,0,0,0-10.027,14.184l-4.2,9.435a93.5,93.5,0,0,0-3.81,12.611c-1.353,5.724-3.4,17.959-3.582,24.063-.1,3.422-.557,7.047-.55,10.612,0,1.834-.006,3.671,0,5.507.006.971-.184,1.89-.137,2.5.062.789.135,1.694.135,2.807-.021,18.341,1.292,20.226,3.3,35.367.1.769.132,1.6.254,2.487.191,1.389-.273,1.6.1,2.635-.181.145-9.483,14.867-10.862,16.823l-6.188,7.5c-10.142,10.9-22.08,18.762-37.3,14.634a89.658,89.658,0,0,1-8.923-2.791c-.219-.092-.371-.142-.663-.268-1.91-1-5.041-1.174-8.034-2.773l-4.6-2.717c-.681-.419-1.308-.5-1.2-1.122l-7.188-4.8a145.158,145.158,0,0,1-11.818-9.309l-10.875-10.324c-.529-.474-.972-1.03-1.472-1.563l-7.67-9.051c-.3-.377-.326-.482-.651-.874a122.539,122.539,0,0,1-8.583-12.787c-6.392-10.645-12.071-26.383-8.355-38.932a28.142,28.142,0,0,1,3.948-8.336,26.938,26.938,0,0,1,18.732-11.315c4.183-.443,2.974-.028,5.552-.028,5.479,0,13.5,4.32,17.225,9.1a56.484,56.484,0,0,1,7.159,12.941,10.808,10.808,0,0,0,1.329,2.9l1.409,1.2-.035-26.533c.5.085.137.055.284-.2l-9.053-7.8c-13.852-8.867-30.795-8.194-44.161,1.55a43.474,43.474,0,0,0-6.573,6.1l-1.952,2.421c-7.118,10.249-9.866,20.811-8.16,34.1,1.987,15.473,10.531,30.821,19.318,42.917.329.452.536.815.863,1.232l5.656,7.092c5.049,5.486,6.579,7.459,12.631,12.956.385.349.712.613,1.12.957,11.571,10.206,21.01,16.024,33.7,24.3a17.577,17.577,0,0,0,2.659,1.276l6.471,3.264a48.471,48.471,0,0,0,9.311,3.75c5.756,1.542,8.61,1.438,14.342.91,5.8-.535,12.526-2.84,17.761-5.087a43.986,43.986,0,0,0,8.165-4.98c1.3-.946,2.443-1.9,3.65-2.956.586-.516,1.175-.948,1.731-1.481l8.788-9.422c.312-.4.465-.492.782-.928,1.726-2.373,2.513-3.236,4.175-5.931a62.9,62.9,0,0,0,4.287-8.562c.967-1.641,10.282-1.125,12.106-.964,3.718.332,8.912.012,12.791.012,17.049,0,33.824.2,51.017.2,0-3.117.685-10.943-1.149-12.916-1.926-2.068-9.371-1.236-12.016-1.236q-4.48,0-8.961,0A3.715,3.715,0,0,1,2098.151,1304.252Z" transform="translate(-1683.798 -1029.896)" fill="#d75b84" fill-rule="evenodd"/>
        <path id="Path_1497" data-name="Path 1497" d="M2292.733,1878.028c-.147.252.217.282-.283.2l.035,26.532c.388.248.023.2.763.2.226-.912.718-.566,1.756-2.042,1.552-2.208,3.131-7.776,6.474-12.9.212-.325.517-.787.784-1.123,11.888-15.012,33.227-13.607,43.648,2.3,6.351,9.694,4.959,21.548,1.226,31.786l-2.247,5.644a30.053,30.053,0,0,1-1.845,3.911c-.278.558-.384.883-.687,1.427-2.3,4.136-3.176,5.735-5.775,9.711l-7.522,10a121.2,121.2,0,0,1-8.2,9.07c-.774.635-1.234,1.32-1.966,2.013-.422.4-.579.437-1.008.883l-1.915,1.874c-.451.469-.65.533-1.1.979-4.286,4.284-12.176,10.238-17.053,13.709a19.321,19.321,0,0,0-4.074,3.736c-.107.618.519.7,1.2,1.122l4.6,2.717c1.933,1.033,4.616,2.845,7.1,2.944,1.292,0,1.563-.65,3.234-1.68a81.025,81.025,0,0,0,9.379-7.214l4.315-4.011c1.848-1.585,5.358-5.521,6.351-6.343,1.05-.873,2.773-3.11,4.054-4.488,2.562-2.753,4.85-5.789,6.766-7.861,3.76-4.063,10.164-13.827,12.972-18.882.286-.516.474-.854.756-1.35a73.568,73.568,0,0,0,8.965-27.708c1.05-10.956-1.547-22.622-7.026-31.3a40.131,40.131,0,0,0-10.206-10.848,32.411,32.411,0,0,0-5.31-3.138c-13.14-5.865-26.851-5.365-39.02,2.51a36.729,36.729,0,0,0-6.845,5.611A9.551,9.551,0,0,1,2292.733,1878.028Z" transform="translate(-2018.78 -1682.881)" fill="#5bd5d6" fill-rule="evenodd"/>
        <path id="Path_1498" data-name="Path 1498" d="M759.943,1296.89l-.393.109Z" transform="translate(-751.165 -1213.973)" fill="#58d5d5" fill-rule="evenodd"/>
      </g>
      <g id="Group_531" data-name="Group 531" transform="translate(1102.162 1179.132)">
        <text id="_248" data-name="248" transform="translate(0 12)" fill="#2b2b2b" font-size="13" font-family="ArialMT, Arial"><tspan x="0" y="0">248</tspan></text>
      </g>
      <g id="_1852876643280" transform="translate(734.036 1191.051)">
        <g id="Group_532" data-name="Group 532" transform="translate(0 0)">
          <text id="JAMES" transform="translate(0 65)" fill="#2b2b2b" font-size="72" font-family="Arial-BoldMT, Arial" font-weight="700"><tspan x="0" y="0">JAMES</tspan></text>
        </g>
        <g id="Group_533" data-name="Group 533" transform="translate(281.516 15.274)">
          <text id="CLUB" transform="translate(0 41)" fill="#2b2b2b" font-size="45" font-family="ArialMT, Arial"><tspan x="0" y="0">CLUB</tspan></text>
        </g>
      </g>
    </g>
  </g>
</svg>
