<svg id="start-up" xmlns="http://www.w3.org/2000/svg" width="29.97" height="29.97" viewBox="0 0 29.97 29.97">
  <path id="Path_58" data-name="Path 58" d="M73.242,284.484a.879.879,0,0,0,.164,1.015l.215.215c.62-.735,1.343-1.533,2.22-2.41.062-.062.126-.092.188-.149l-1.381-1.382C73.845,283.226,73.376,284.218,73.242,284.484Zm0,0" transform="translate(-68.867 -265.28)" fill="#59D6D6"/>
  <path id="Path_59" data-name="Path 59" d="M165.3,389.75c-.879.879-1.675,1.6-2.406,2.224l.291.291a.878.878,0,0,0,1.022.16c.455-.234,1.17-.571,2.688-1.417l-1.446-1.447C165.388,389.625,165.358,389.688,165.3,389.75Zm0,0" transform="translate(-153.355 -366.759)" fill="#59D6D6"/>
  <path id="Path_60" data-name="Path 60" d="M67.573,311.573c-.635-.635-2.419-.066-3.257.772a23.349,23.349,0,0,0-4.639,5.966.878.878,0,0,0,1.174,1.173,23.521,23.521,0,0,0,5.949-4.655c.922-.922,1.377-2.653.774-3.255Zm0,0" transform="translate(-56.1 -293.08)" fill="#59D6D6"/>
  <path id="Path_61" data-name="Path 61" d="M2.741,165.887.258,168.37a.878.878,0,0,0,.848,1.469,7.216,7.216,0,0,1,3.318-.308,47.117,47.117,0,0,1,3.635-5.545c-.745-.477-3.206-.212-5.318,1.9Zm0,0" transform="translate(-0.001 -154.196)" fill="#59D6D6"/>
  <path id="Path_62" data-name="Path 62" d="M246.124,384.33a.876.876,0,0,0,1.015-.163l2.484-2.483c1.923-1.923,2.261-4.4,1.825-5.191A50.136,50.136,0,0,1,245.9,380.1a10.759,10.759,0,0,1-.248,3.318.876.876,0,0,0,.474.913Zm0,0" transform="translate(-231.262 -354.454)" fill="#59D6D6"/>
  <path id="Path_63" data-name="Path 63" d="M285.414,138.079a2.634,2.634,0,1,0,3.725,0A2.637,2.637,0,0,0,285.414,138.079Zm0,0" transform="translate(-267.982 -129.271)" fill="#59D6D6"/>
  <path id="Path_64" data-name="Path 64" d="M394.993.858a.877.877,0,0,0-.81-.81,17.358,17.358,0,0,0-6.41.747,7.372,7.372,0,0,0,2.184,4.289,7.348,7.348,0,0,0,4.373,2.18,18.158,18.158,0,0,0,.663-6.406Zm0,0" transform="translate(-365.075 -0.001)" fill="#59D6D6"/>
  <path id="Path_65" data-name="Path 65" d="M131.287,28.916a9.224,9.224,0,0,1-2.64-4.92c-5.273,2.162-10.32,6.885-14.308,13.518l1.982,1.982c1.354-.55,3-.695,4.04.347s.9,2.687.346,4.039l2.047,2.047c5.1-3.076,11.046-7.922,13.573-14.37a9.18,9.18,0,0,1-5.04-2.643Zm-1.242,7.45a4.39,4.39,0,1,1,0-6.209A4.4,4.4,0,0,1,130.045,36.366Zm0,0" transform="translate(-107.646 -22.592)" fill="#59D6D6"/>
</svg>
